<svg width="12" height="16" viewBox="0 0 12 16" fill="none" xmlns="http://www.w3.org/2000/svg">
<path d="M0.75 0C0.335786 0 0 0.335786 0 0.75C0 1.16421 0.335786 1.5 0.75 1.5H11.25C11.6642 1.5 12 1.16421 12 0.75C12 0.335786 11.6642 0 11.25 0H0.75ZM6.74626 15.3493C6.6966 15.7154 6.38281 15.9976 6.00311 15.9976C5.5889 15.9976 5.25311 15.6618 5.25311 15.2476L5.25249 5.05856L2.27995 8.02601L2.19578 8.09856C1.90202 8.31621 1.48537 8.29171 1.21929 8.02525C0.926608 7.73215 0.926946 7.25728 1.22005 6.96459L5.50962 2.67989C5.58377 2.61512 5.67089 2.56485 5.7669 2.53385L5.84777 2.51072C5.89749 2.50019 5.94837 2.4947 5.99849 2.4947L6.05855 2.49661L6.12781 2.50451L6.24828 2.53462L6.33947 2.57254L6.37589 2.59371L6.46685 2.6523L6.53752 2.71481L10.7803 6.96546L10.8529 7.04964C11.0705 7.34345 11.0459 7.7601 10.7794 8.02612L10.6952 8.09866C10.4014 8.31624 9.98473 8.29165 9.71871 8.02514L6.75249 5.05456L6.75311 15.2476L6.74626 15.3493Z" fill="#3F3F46"/>
</svg>
