<svg width="17" height="11" viewBox="0 0 17 11" fill="none" xmlns="http://www.w3.org/2000/svg">
<path d="M1.5 0C0.671573 0 0 0.671573 0 1.5V3.5C0 4.32843 0.671573 5 1.5 5H3.5C4.32843 5 5 4.32843 5 3.5V1.5C5 0.671573 4.32843 0 3.5 0H1.5ZM1.5 6C0.671573 6 0 6.67157 0 7.5V9.5C0 10.3284 0.671573 11 1.5 11H3.5C4.32843 11 5 10.3284 5 9.5V7.5C5 6.67157 4.32843 6 3.5 6H1.5ZM6 1.5C6 0.671573 6.67157 0 7.5 0H9.5C10.3284 0 11 0.671573 11 1.5V3.5C11 4.32843 10.3284 5 9.5 5H7.5C6.67157 5 6 4.32843 6 3.5V1.5ZM7.5 6C6.67157 6 6 6.67157 6 7.5V9.5C6 10.3284 6.67157 11 7.5 11H9.5C10.3284 11 11 10.3284 11 9.5V7.5C11 6.67157 10.3284 6 9.5 6H7.5ZM12 1.5C12 0.671573 12.6716 0 13.5 0H15.5C16.3284 0 17 0.671573 17 1.5V3.5C17 4.32843 16.3284 5 15.5 5H13.5C12.6716 5 12 4.32843 12 3.5V1.5ZM13.5 6C12.6716 6 12 6.67157 12 7.5V9.5C12 10.3284 12.6716 11 13.5 11H15.5C16.3284 11 17 10.3284 17 9.5V7.5C17 6.67157 16.3284 6 15.5 6H13.5Z" fill="#3F3F46"/>
</svg>
