<svg width="16" height="16" viewBox="0 0 16 16" fill="none" xmlns="http://www.w3.org/2000/svg">
<path d="M6 2.5C6 2.22386 6.22386 2 6.5 2H15.5C15.7761 2 16 2.22386 16 2.5C16 2.77614 15.7761 3 15.5 3H6.5C6.22386 3 6 2.77614 6 2.5ZM6 8.5C6 8.22386 6.22386 8 6.5 8H15.5C15.7761 8 16 8.22386 16 8.5C16 8.77614 15.7761 9 15.5 9H6.5C6.22386 9 6 8.77614 6 8.5ZM6 14.5C6 14.2239 6.22386 14 6.5 14H15.5C15.7761 14 16 14.2239 16 14.5C16 14.7761 15.7761 15 15.5 15H6.5C6.22386 15 6 14.7761 6 14.5ZM0 13.5C0 12.6716 0.671573 12 1.5 12H2.5C3.32843 12 4 12.6716 4 13.5V14.5C4 15.3284 3.32843 16 2.5 16H1.5C0.671573 16 0 15.3284 0 14.5V13.5ZM0 7.5C0 6.67157 0.671573 6 1.5 6H2.5C3.32843 6 4 6.67157 4 7.5V8.5C4 9.32843 3.32843 10 2.5 10H1.5C0.671573 10 0 9.32843 0 8.5V7.5ZM0 1.5C0 0.671573 0.671573 0 1.5 0H2.5C3.32843 0 4 0.671573 4 1.5V2.5C4 3.32843 3.32843 4 2.5 4H1.5C0.671573 4 0 3.32843 0 2.5V1.5Z" fill="currentColor"/>
</svg>
