<svg width="14" height="16" viewBox="0 0 14 16" fill="none" xmlns="http://www.w3.org/2000/svg">
<path d="M0.205112 6.73464C-0.0795129 7.03557 -0.0662918 7.51026 0.234642 7.79489C0.535577 8.07951 1.01027 8.06629 1.29489 7.76536L6.25 2.52632V15.25C6.25 15.6642 6.58579 16 7 16C7.41421 16 7.75 15.6642 7.75 15.25V2.52405L12.7073 7.76536C12.9919 8.06629 13.4666 8.07951 13.7675 7.79489C14.0684 7.51026 14.0817 7.03557 13.797 6.73464L7.72759 0.317415C7.57031 0.151117 7.3702 0.0511155 7.16141 0.0174117C7.10942 0.00600958 7.05541 0 7 0C6.94241 0 6.88633 0.00649166 6.83246 0.0187831C6.62667 0.053771 6.42976 0.153315 6.27455 0.317415L0.205112 6.73464Z" fill="#3F3F46"/>
</svg>
