<svg width="15" height="15" viewBox="0 0 15 15" fill="none" xmlns="http://www.w3.org/2000/svg">
<path d="M13.5 7.5C13.5 4.18629 10.8137 1.5 7.5 1.5C5.97869 1.5 4.58928 2.06592 3.53111 3H4.75C5.16421 3 5.5 3.33579 5.5 3.75C5.5 4.16421 5.16421 4.5 4.75 4.5H1.75C1.33579 4.5 1 4.16421 1 3.75V0.75C1 0.335786 1.33579 0 1.75 0C2.16421 0 2.5 0.335786 2.5 0.75V1.90987C3.82643 0.722744 5.57867 0 7.5 0C11.6421 0 15 3.35786 15 7.5C15 11.6421 11.6421 15 7.5 15C3.35786 15 0 11.6421 0 7.5C0 7.40715 0.00169182 7.31467 0.00504589 7.22258C0.0201244 6.80864 0.367912 6.4853 0.781851 6.50038C1.19579 6.51546 1.51913 6.86324 1.50405 7.27718C1.50136 7.35109 1.5 7.42537 1.5 7.5C1.5 10.8137 4.18629 13.5 7.5 13.5C10.8137 13.5 13.5 10.8137 13.5 7.5Z" fill="currentColor"/>
</svg>
