<svg width="48" height="48" viewBox="0 0 48 48" fill="none" xmlns="http://www.w3.org/2000/svg">
<path d="M0 24C0 10.7452 10.7452 0 24 0C37.2548 0 48 10.7452 48 24C48 37.2548 37.2548 48 24 48C10.7452 48 0 37.2548 0 24Z" fill="#F4F4F5"/>
<path d="M24.0016 14C29.5253 14 34.0031 18.4778 34.0031 24.0016C34.0031 29.5253 29.5253 34.0031 24.0016 34.0031C18.4778 34.0031 14 29.5253 14 24.0016C14 18.4778 18.4778 14 24.0016 14ZM24.0016 15.5C19.3063 15.5 15.5 19.3063 15.5 24.0016C15.5 28.6968 19.3063 32.5031 24.0016 32.5031C28.6968 32.5031 32.5031 28.6968 32.5031 24.0016C32.5031 19.3063 28.6968 15.5 24.0016 15.5ZM24 22.501C24.4142 22.501 24.75 22.8368 24.75 23.251V28.251C24.75 28.6652 24.4142 29.001 24 29.001C23.5858 29.001 23.25 28.6652 23.25 28.251V23.251C23.25 22.8368 23.5858 22.501 24 22.501ZM24 21.001C24.5523 21.001 25 20.5533 25 20.001C25 19.4487 24.5523 19.001 24 19.001C23.4477 19.001 23 19.4487 23 20.001C23 20.5533 23.4477 21.001 24 21.001Z" fill="#70707B" stroke="#70707B" stroke-width="0.5"/>
</svg>
