<svg width="48" height="48" viewBox="0 0 48 48" fill="none" xmlns="http://www.w3.org/2000/svg">
<path d="M0 24C0 10.7452 10.7452 0 24 0C37.2548 0 48 10.7452 48 24C48 37.2548 37.2548 48 24 48C10.7452 48 0 37.2548 0 24Z" fill="#FEE4E2"/>
<path d="M22 17H26C26 15.8954 25.1046 15 24 15C22.8954 15 22 15.8954 22 17ZM20.5 17C20.5 15.067 22.067 13.5 24 13.5C25.933 13.5 27.5 15.067 27.5 17H33.25C33.6642 17 34 17.3358 34 17.75C34 18.1642 33.6642 18.5 33.25 18.5H31.9309L30.7589 30.6112C30.5729 32.5334 28.9575 34 27.0263 34H20.9737C19.0425 34 17.4271 32.5334 17.2411 30.6112L16.0691 18.5H14.75C14.3358 18.5 14 18.1642 14 17.75C14 17.3358 14.3358 17 14.75 17H20.5ZM22.5 21.75C22.5 21.3358 22.1642 21 21.75 21C21.3358 21 21 21.3358 21 21.75V29.25C21 29.6642 21.3358 30 21.75 30C22.1642 30 22.5 29.6642 22.5 29.25V21.75ZM26.25 21C26.6642 21 27 21.3358 27 21.75V29.25C27 29.6642 26.6642 30 26.25 30C25.8358 30 25.5 29.6642 25.5 29.25V21.75C25.5 21.3358 25.8358 21 26.25 21ZM18.7342 30.4667C18.8458 31.62 19.815 32.5 20.9737 32.5H27.0263C28.185 32.5 29.1542 31.62 29.2658 30.4667L30.4239 18.5H17.5761L18.7342 30.4667Z" fill="#D92D20" stroke="#D92D20" stroke-width="0.5" stroke-linecap="round"/>
</svg>
