<svg width="16" height="15" viewBox="0 0 16 15" fill="none" xmlns="http://www.w3.org/2000/svg">
<path d="M11 10C11.5523 10 12 10.4477 12 11V14.75C12 14.8881 11.8881 15 11.75 15H10.25C10.1119 15 10 14.8881 10 14.75V11C10 10.4477 10.4477 10 11 10ZM13.5 2C14.8807 2 16 3.11929 16 4.5V11.5C16 12.8807 14.8807 14 13.5 14H13V11C13 9.89543 12.1046 9 11 9C9.89543 9 9 9.89543 9 11V14H2.5C1.11929 14 0 12.8807 0 11.5V5H5.08594C5.48371 4.99996 5.86522 4.84182 6.14648 4.56055L8.70703 2H13.5ZM9.5 8C9.22386 8 9 8.22386 9 8.5C9 8.77614 9.22386 9 9.5 9H11V8H9.5ZM11 8H12.5C12.7761 8 13 7.77614 13 7.5C13 7.22386 12.7761 7 12.5 7H11V8ZM9.5 6C9.22386 6 9 6.22386 9 6.5C9 6.77614 9.22386 7 9.5 7H11V6H9.5ZM11 6H12.5C12.7761 6 13 5.77614 13 5.5C13 5.22386 12.7761 5 12.5 5H11V6ZM9.5 4C9.22386 4 9 4.22386 9 4.5C9 4.77614 9.22386 5 9.5 5H11V4H9.5ZM4.98242 0C5.44648 5.00003e-05 5.89158 0.184551 6.21973 0.512695L7.5 1.79297L5.43945 3.85352C5.34572 3.94725 5.21849 3.99996 5.08594 4H0V2.5C0 1.11929 1.11929 0 2.5 0H4.98242Z" fill="#3F3F46"/>
</svg>
