<svg width="14" height="16" viewBox="0 0 14 16" fill="none" xmlns="http://www.w3.org/2000/svg">
<path d="M1.5 2H3.08535C3.29127 2.5826 3.84689 3 4.5 3H7.5C8.15311 3 8.70873 2.5826 8.91465 2H10.5C10.7761 2 11 2.22386 11 2.5V3.5C11 3.77614 11.2239 4 11.5 4C11.7761 4 12 3.77614 12 3.5V2.5C12 1.67157 11.3284 1 10.5 1H8.91465C8.70873 0.417404 8.15311 0 7.5 0H4.5C3.84689 0 3.29127 0.417404 3.08535 1H1.5C0.671573 1 0 1.67157 0 2.5V14.5C0 15.3284 0.671573 16 1.5 16H4.5C4.77614 16 5 15.7761 5 15.5C5 15.2239 4.77614 15 4.5 15H1.5C1.22386 15 1 14.7761 1 14.5V2.5C1 2.22386 1.22386 2 1.5 2ZM4.5 2C4.22386 2 4 1.77614 4 1.5C4 1.22386 4.22386 1 4.5 1H7.5C7.77614 1 8 1.22386 8 1.5C8 1.77614 7.77614 2 7.5 2H4.5ZM7.5 5C6.67157 5 6 5.67157 6 6.5V14.5C6 15.3284 6.67157 16 7.5 16H12.5C13.3284 16 14 15.3284 14 14.5V6.5C14 5.67157 13.3284 5 12.5 5H7.5Z" fill="#3F3F46"/>
</svg>
