<svg width="15" height="17" viewBox="0 0 15 17" fill="none" xmlns="http://www.w3.org/2000/svg">
<path d="M9 0V4.5C9 5.32843 9.67157 6 10.5 6H15V14.5C15 15.3284 14.3284 16 13.5 16H8.74284C9.52818 15.0491 10 13.8296 10 12.5C10 9.46243 7.53757 7 4.5 7C3.97999 7 3.47683 7.07217 3 7.20703V1.5C3 0.671573 3.67157 0 4.5 0H9ZM10 0.25V4.5C10 4.77614 10.2239 5 10.5 5H14.75L10 0.25ZM9 12.5C9 14.9853 6.98528 17 4.5 17C2.01472 17 0 14.9853 0 12.5C0 10.0147 2.01472 8 4.5 8C6.98528 8 9 10.0147 9 12.5ZM5 10.5C5 10.2239 4.77614 10 4.5 10C4.22386 10 4 10.2239 4 10.5V12H2.5C2.22386 12 2 12.2239 2 12.5C2 12.7761 2.22386 13 2.5 13H4L4 14.5C4 14.7761 4.22386 15 4.5 15C4.77614 15 5 14.7761 5 14.5V13H6.5C6.77614 13 7 12.7761 7 12.5C7 12.2239 6.77614 12 6.5 12H5V10.5Z" fill="#3F3F46"/>
</svg>
