<svg width="16" height="15" viewBox="0 0 16 15" fill="none" xmlns="http://www.w3.org/2000/svg">
<path d="M6.5 1.00017C6.77607 1.00017 6.99988 1.22413 7 1.50017C7 1.77631 6.77614 2.00017 6.5 2.00017H3C1.89551 2.00017 1.00012 2.8957 1 4.00017V12.0002C1 13.1047 1.89543 14.0002 3 14.0002H11C12.1046 14.0002 13 13.1047 13 12.0002V10.5002C13.0001 10.2241 13.2239 10.0002 13.5 10.0002C13.7761 10.0002 13.9999 10.2241 14 10.5002V12.0002C14 13.657 12.6569 15.0002 11 15.0002H3C1.34315 15.0002 2.41596e-08 13.657 0 12.0002V4.00017C0.00012092 2.34342 1.34322 1.00017 3 1.00017H6.5ZM10.2969 0.0431366C10.4771 -0.0369298 10.6883 -0.00380428 10.835 0.128097L15.835 4.6281C15.9402 4.72287 15.9999 4.85853 16 5.00017C16 5.14184 15.9402 5.27742 15.835 5.37224L10.835 9.87224C10.6883 10.0042 10.4772 10.0373 10.2969 9.9572C10.1165 9.87685 10 9.69759 10 9.50017V7.34001C8.59915 7.46822 7.33472 8.11956 6.2998 8.94841C5.28552 9.76082 4.52484 10.7163 4.10547 11.4328L3.94727 11.7238C3.84356 11.9312 3.61045 12.0398 3.38477 11.9865C3.15932 11.9331 3 11.7319 3 11.5002C3.00003 9.45187 3.38155 7.21589 4.51855 5.47673C5.60929 3.80864 7.36732 2.64331 10 2.51286V0.500168L10.0049 0.426926C10.0297 0.259447 10.1392 0.113376 10.2969 0.0431366Z" fill="#3F3F46"/>
</svg>
