<svg width="16" height="10" viewBox="0 0 16 10" fill="none" xmlns="http://www.w3.org/2000/svg">
<path d="M0.989558 6.60214C1.67301 3.32689 4.52484 1 7.73048 1C10.9361 1 13.7879 3.32688 14.4714 6.60215C14.5278 6.87246 14.7927 7.04587 15.063 6.98946C15.3333 6.93304 15.5067 6.66817 15.4503 6.39785C14.673 2.67312 11.4239 0 7.73048 0C4.03707 0 0.78789 2.67311 0.0106435 6.39786C-0.0457642 6.66818 0.127646 6.93305 0.397965 6.98946C0.668285 7.04587 0.93315 6.87246 0.989558 6.60214ZM7.72 3C9.653 3 11.22 4.567 11.22 6.5C11.22 8.43299 9.653 10 7.72 10C5.787 10 4.22 8.43299 4.22 6.5C4.22 4.567 5.787 3 7.72 3Z" fill="#3F3F46"/>
</svg>
