<svg width="16" height="16" viewBox="0 0 16 16" fill="none" xmlns="http://www.w3.org/2000/svg">
<path d="M2.5 0C1.11929 0 0 1.11929 0 2.5V11.5C0 12.8807 1.11929 14 2.5 14H11.5C12.8807 14 14 12.8807 14 11.5V2.5C14 1.11929 12.8807 0 11.5 0H2.5ZM7.5 4.5V6.5H9.5C9.77614 6.5 10 6.72386 10 7C10 7.27614 9.77614 7.5 9.5 7.5H7.5V9.5C7.5 9.77614 7.27614 10 7 10C6.72386 10 6.5 9.77614 6.5 9.5V7.5H4.5C4.22386 7.5 4 7.27614 4 7C4 6.72386 4.22386 6.5 4.5 6.5H6.5V4.5C6.5 4.22386 6.72386 4 7 4C7.27614 4 7.5 4.22386 7.5 4.5ZM5.50027 16C4.54662 16 3.68205 15.6186 3.05078 15H12.5003C13.881 15 15.0003 13.8807 15.0003 12.5V3.05054C15.6189 3.68181 16.0003 4.54638 16.0003 5.50003V12.5C16.0003 14.433 14.4333 16 12.5003 16H5.50027Z" fill="#3F3F46"/>
</svg>
