<svg width="14" height="16" viewBox="0 0 14 16" fill="none" xmlns="http://www.w3.org/2000/svg">
<path d="M11.8789 1.15883L8.77998 5.92634L7.88728 4.54737L10.6212 0.341347C10.8469 -0.0059481 11.3115 -0.104486 11.6588 0.121255C12.0061 0.346997 12.1046 0.811534 11.8789 1.15883ZM9.49522 9.75117C9.8813 9.58944 10.3052 9.50009 10.75 9.50009C12.5449 9.50009 14 10.9552 14 12.7501C14 14.545 12.5449 16.0001 10.75 16.0001C8.95507 16.0001 7.5 14.545 7.5 12.7501C7.5 11.9429 7.79428 11.2044 8.2814 10.6361L7.00001 8.66475L5.71861 10.6361C6.20573 11.2044 6.5 11.9429 6.5 12.7501C6.5 14.545 5.04493 16.0001 3.25 16.0001C1.45507 16.0001 0 14.545 0 12.7501C0 10.9552 1.45507 9.50009 3.25 9.50009C3.69479 9.50009 4.11872 9.58945 4.5048 9.75118L6.1055 7.28857L2.12117 1.15883C1.89543 0.811537 1.99397 0.347 2.34126 0.121258C2.68856 -0.104483 3.15309 -0.00594482 3.37883 0.34135L9.49522 9.75117ZM9.69126 11.3566C9.27118 11.6762 9 12.1815 9 12.7501C9 13.7166 9.7835 14.5001 10.75 14.5001C11.7165 14.5001 12.5 13.7166 12.5 12.7501C12.5 11.7836 11.7165 11.0001 10.75 11.0001C10.3606 11.0001 10.0009 11.1273 9.71015 11.3424C9.70395 11.3472 9.69765 11.3519 9.69126 11.3566ZM3.25 11.0001C2.2835 11.0001 1.5 11.7836 1.5 12.7501C1.5 13.7166 2.2835 14.5001 3.25 14.5001C4.2165 14.5001 5 13.7166 5 12.7501C5 12.1812 4.72853 11.6757 4.30807 11.3561C4.30215 11.3518 4.29631 11.3474 4.29055 11.3429C3.9997 11.1275 3.63973 11.0001 3.25 11.0001Z" fill="#3F3F46"/>
</svg>
