<svg width="249" height="176" viewBox="0 0 249 176" fill="none" xmlns="http://www.w3.org/2000/svg">
<path d="M216.639 126.876C175.451 117.305 94.4145 120.992 50.8989 126.876C7.38328 132.76 -13.1342 141.99 8.98242 160.675C31.099 179.359 189.285 180.29 216.64 167.099C261.675 145.378 257.857 136.461 216.639 126.876Z" fill="#091D3D"/>
<path d="M100.817 70H76.1074C74.4506 70 73.1074 71.3431 73.1074 73V144.015H182.76V83.6524C182.76 81.4433 180.969 79.6524 178.76 79.6524H117.048L100.817 70Z" fill="#BDBDBD"/>
<path d="M88.9596 85.3119H157.736C158.971 85.3119 160.079 86.0683 160.529 87.218L182.592 143.563C183.363 145.53 181.912 147.656 179.799 147.656H74.3001C73.1458 147.656 72.0938 146.994 71.5949 145.953L50.0587 101.024C49.1041 99.033 50.5556 96.7277 52.7639 96.7277H72.414L88.9596 85.3119Z" fill="#D8D8D8"/>
<g clip-path="url(#clip0_4284_35502)">
<path d="M106.784 9.55854L97.9927 11.202L92.0753 4.74125L75.5061 12.8832C74.2859 13.4827 73.7712 14.934 74.3564 16.1248L90.3192 48.61C90.9044 49.8009 92.3678 50.2801 93.5879 49.6805L117.889 37.7391C119.11 37.1395 119.624 35.6882 119.039 34.4974L106.784 9.55854Z" fill="#EBEBEB"/>
<path d="M106.785 9.55868L119.039 34.4975C119.625 35.6883 119.11 37.1397 117.89 37.7392L105.916 43.6231L87.834 6.82568L92.0756 4.74139L97.993 11.2021L106.785 9.55868Z" fill="#EBEBEB"/>
<path d="M106.785 9.5585L99.0531 13.3581C97.838 13.9551 96.3671 13.4734 95.7844 12.2876L92.0762 4.74121C92.3634 4.60008 92.7035 4.56676 93.0083 4.68478L106.083 8.96681C106.399 9.05219 106.648 9.27821 106.785 9.5585Z" fill="#D8D8D8"/>
</g>
<g clip-path="url(#clip1_4284_35502)">
<path d="M167.135 45.8506L160.059 39.9413L161.303 31.0483L143.962 23.1886C142.685 22.6098 141.196 23.1441 140.634 24.3821L125.327 58.1531C124.766 59.391 125.347 60.8637 126.623 61.4425L152.056 72.97C153.333 73.5488 154.823 73.0145 155.384 71.7766L167.135 45.8506Z" fill="#EBEBEB"/>
<path d="M167.135 45.8505L155.384 71.7764C154.822 73.0144 153.332 73.5487 152.056 72.9699L139.524 67.29L156.863 29.0361L161.302 31.0482L160.059 39.9412L167.135 45.8505Z" fill="#EBEBEB"/>
<path d="M167.135 45.8506L159.043 42.1828C157.771 41.6064 157.188 40.1262 157.747 38.8934L161.303 31.0483C161.603 31.1846 161.853 31.4329 161.959 31.7514L167.144 44.909C167.284 45.2155 167.267 45.5592 167.135 45.8506Z" fill="#D8D8D8"/>
<path d="M143.109 50.799L147.422 60.1646L133.224 53.7292L143.109 50.799Z" fill="#BDBDBD"/>
<path d="M150.431 49.1771L152.886 62.6415L138.688 56.2061L150.431 49.1771Z" fill="#BDBDBD"/>
<ellipse cx="144.092" cy="41.363" rx="3" ry="3" transform="rotate(24.3829 144.092 41.363)" fill="#A8A6A6"/>
</g>
<defs>
<clipPath id="clip0_4284_35502">
<rect width="32" height="41" fill="white" transform="translate(73 14.1143) rotate(-26.169)"/>
</clipPath>
<clipPath id="clip1_4284_35502">
<rect width="33" height="42" fill="white" transform="translate(141.34 22) rotate(24.3829)"/>
</clipPath>
</defs>
</svg>
