<svg width="22" height="28" viewBox="0 0 22 28" fill="none" xmlns="http://www.w3.org/2000/svg">
<path d="M21.1751 24.2668H9.62459C9.16918 24.2668 8.79956 23.8487 8.79956 23.3335C8.79956 22.8183 8.79956 5.18284 8.79956 4.66767C8.79956 4.15249 9.16918 3.73438 9.62459 3.73438H21.1751C21.6305 3.73438 22.0001 4.15249 22.0001 4.66767V23.3335C22.0001 23.8487 21.6305 24.2668 21.1751 24.2668Z" fill="#ECEFF1"/>
<path d="M12.9242 9.33349H9.62411C9.16869 9.33349 8.79907 8.91537 8.79907 8.40019C8.79907 7.88502 9.16869 7.4669 9.62411 7.4669H12.9242C13.3797 7.4669 13.7493 7.88502 13.7493 8.40019C13.7493 8.91537 13.3797 9.33349 12.9242 9.33349Z" fill="#388E3C"/>
<path d="M12.9237 13.0666H9.62362C9.1682 13.0666 8.79858 12.6485 8.79858 12.1333C8.79858 11.6181 9.1682 11.2 9.62362 11.2H12.9237C13.3792 11.2 13.7488 11.6181 13.7488 12.1333C13.7488 12.6485 13.3792 13.0666 12.9237 13.0666Z" fill="#388E3C"/>
<path d="M12.9237 16.7999H9.62362C9.1682 16.7999 8.79858 16.3818 8.79858 15.8666C8.79858 15.3514 9.1682 14.9333 9.62362 14.9333H12.9237C13.3792 14.9333 13.7488 15.3514 13.7488 15.8666C13.7488 16.3818 13.3792 16.7999 12.9237 16.7999Z" fill="#388E3C"/>
<path d="M12.9237 20.5332H9.62362C9.1682 20.5332 8.79858 20.1151 8.79858 19.6C8.79858 19.0848 9.1682 18.6667 9.62362 18.6667H12.9237C13.3792 18.6667 13.7488 19.0848 13.7488 19.6C13.7488 20.1151 13.3792 20.5332 12.9237 20.5332Z" fill="#388E3C"/>
<path d="M17.8743 9.33338H16.2242C15.7688 9.33338 15.3992 8.91526 15.3992 8.40009C15.3992 7.88491 15.7688 7.4668 16.2242 7.4668H17.8743C18.3297 7.4668 18.6993 7.88491 18.6993 8.40009C18.6993 8.91526 18.3297 9.33338 17.8743 9.33338Z" fill="#388E3C"/>
<path d="M17.8743 13.0668H16.2242C15.7688 13.0668 15.3992 12.6487 15.3992 12.1335C15.3992 11.6183 15.7688 11.2002 16.2242 11.2002H17.8743C18.3297 11.2002 18.6993 11.6183 18.6993 12.1335C18.6993 12.6487 18.3297 13.0668 17.8743 13.0668Z" fill="#388E3C"/>
<path d="M17.8743 16.7997H16.2242C15.7688 16.7997 15.3992 16.3816 15.3992 15.8664C15.3992 15.3512 15.7688 14.9331 16.2242 14.9331H17.8743C18.3297 14.9331 18.6993 15.3512 18.6993 15.8664C18.6993 16.3816 18.3297 16.7997 17.8743 16.7997Z" fill="#388E3C"/>
<path d="M17.8743 20.5331H16.2242C15.7688 20.5331 15.3992 20.115 15.3992 19.5998C15.3992 19.0846 15.7688 18.6665 16.2242 18.6665H17.8743C18.3297 18.6665 18.6993 19.0846 18.6993 19.5998C18.6993 20.115 18.3297 20.5331 17.8743 20.5331Z" fill="#388E3C"/>
<path d="M14.5519 0.215915C14.3638 0.0385893 14.1114 -0.0379406 13.8737 0.0180569L0.673227 2.81793C0.282161 2.90006 0 3.28458 0 3.73442V24.2668C0 24.7148 0.282161 25.1012 0.673227 25.1833L13.8737 27.9832C13.9233 27.9944 13.9744 28 14.0256 28C14.217 28 14.4034 27.9253 14.5519 27.7853C14.7417 27.608 14.8506 27.343 14.8506 27.0667V0.934549C14.8506 0.656428 14.7417 0.39324 14.5519 0.215915Z" fill="#2E7D32"/>
<path d="M10.3446 17.1193L7.73583 13.7464L10.3743 9.90866C10.6548 9.50174 10.5888 8.91564 10.2307 8.59832C9.87266 8.281 9.35454 8.35566 9.07238 8.76071L6.62863 12.3147L4.56935 9.65294C4.26739 9.26096 3.74597 9.22549 3.40606 9.56521C3.06284 9.90493 3.02819 10.4948 3.3285 10.8811L5.59734 13.8154L3.29715 17.1603C3.01664 17.5672 3.08264 18.1534 3.44071 18.4707C3.59251 18.6032 3.77237 18.6667 3.94893 18.6667C4.19479 18.6667 4.43735 18.5435 4.6007 18.3064L6.70454 15.2452L9.10373 18.3456C9.26709 18.5584 9.4948 18.6667 9.72416 18.6667C9.91722 18.6667 10.1103 18.5901 10.267 18.4352C10.6102 18.0955 10.6449 17.5057 10.3446 17.1193Z" fill="#FAFAFA"/>
</svg>
