<svg width="187" height="140" viewBox="0 0 191 140" fill="none" xmlns="http://www.w3.org/2000/svg">
  <path d="M9.09,42.5l.17-35.52C9.25,3.12,12.69,0,16.94,0h49.45c1.1,0,2.2.18,3.23.57,8.1,3.04,11.12,9.69,17.08,17.17.67.84,1.69,1.35,2.77,1.35h88.58c4.9,0,8.87,2.77,8.87,7.21v12.69c0,1.94-1.57,3.51-3.51,3.51H9.09Z" fill="#F6B81E" stroke="#C6861A" stroke-width="2" stroke-linejoin="round"/>
  <path d="M15.89,45.02c0-3.31,3.11-6.8,6.94-6.8h42.89c2.07,0,4.73-.31,6.57-1.23l6.76.89c.1-.06.2-1.1.3-1.16,1.91-1.14,3.4-1.21,5.65-1.21,12.67-.03,56.71,0,73.88.02,3.54,0,6.4-.91,6.4,2.15v77.27c0,3.18-2.98,5.76-6.66,5.76H22.68c-3.75,0-6.79-2.63-6.79-5.87V45.02Z" fill="#FFDC79"/>
  <path d="M9.09,40.35c0-4.14,3.7-8.49,8.26-8.49h51.05c2.47,0,5.63-.39,7.82-1.53l8.05-5.13c.12-.07.24-.13.36-.2,2.28-1.43,4.05-2.76,6.73-2.76,15.08-.04,67.5,0,87.95.02,4.21,0,7.62,5.1,7.62,8.93v96.51c0,3.97-3.55,7.19-7.93,7.19H17.17c-4.46,0-8.08-3.28-8.08-7.33V40.35Z" fill="#FFDC79"/>
  <path d="M9.09,46.09c0-4.45,3.98-8.06,8.89-8.06h54.86c1.52,0,3.01-.4,4.33-1.15,3.1-1.78,9-5.17,12.01-6.95,1.28-.76,2.74-1.16,4.23-1.16,11.8,0,64.48-.03,85.89,0,4.21,0,7.62,3.1,7.62,6.93v97c0,3.97-3.55,7.19-7.93,7.19H17.17c-4.46,0-8.08-3.28-8.08-7.33V46.09Z" fill="#E5A829"/>
  <path d="M9.09,42.09c0-4.45,3.98-8.06,8.89-8.06h54.86c1.52,0,3.01-.4,4.33-1.15,3.1-1.78,9-5.17,12.01-6.95,1.28-.76,2.74-1.16,4.23-1.16,11.8,0,64.48-.03,85.89,0,4.21,0,7.62,3.1,7.62,6.93v96c0,3.97-3.55,9.19-7.93,9.19H17.17c-4.46,0-8.08-5.28-8.08-9.33V42.09Z" fill="#FFD38A" stroke="#C6861A" stroke-width="2" stroke-linejoin="round"/>
</svg>