<svg width="22" height="28" viewBox="0 0 22 28" fill="none" xmlns="http://www.w3.org/2000/svg">
<path d="M21.1161 3.73394H8.74111C8.25318 3.73394 7.85718 4.15205 7.85718 4.66723V23.3331C7.85718 23.8482 8.25318 24.2664 8.74111 24.2664H21.1161C21.604 24.2664 22 23.8482 22 23.3331V4.66723C22 4.15205 21.604 3.73394 21.1161 3.73394Z" fill="#ECEFF1"/>
<path d="M19.1517 20.5332H10.3124C9.82447 20.5332 9.42847 20.115 9.42847 19.5999C9.42847 19.0847 9.82447 18.6666 10.3124 18.6666H19.1517C19.6396 18.6666 20.0356 19.0847 20.0356 19.5999C20.0356 20.115 19.6396 20.5332 19.1517 20.5332Z" fill="#F57C00"/>
<path d="M14.7321 7.46712C12.2907 7.46712 10.3125 9.55583 10.3125 12.1336C10.3125 14.7113 12.2907 16.8 14.7321 16.8C17.1736 16.8 19.1518 14.7113 19.1518 12.1336H14.7321V7.46712Z" fill="#F57C00"/>
<path d="M15.5 6.60052V11.267H19.9196C19.9196 8.68923 17.9414 6.60052 15.5 6.60052Z" fill="#F57C00"/>
<path d="M14.6983 0.215915C14.5083 0.0385893 14.2533 -0.0379406 14.0133 0.0180569L0.68 2.81793C0.285 2.90006 0 3.28458 0 3.73442V24.2668C0 24.7148 0.285 25.1012 0.68 25.1833L14.0133 27.9832C14.0633 27.9944 14.115 28 14.1667 28C14.36 28 14.5483 27.9253 14.6983 27.7853C14.89 27.608 15 27.343 15 27.0667V0.934549C15 0.656428 14.89 0.39324 14.6983 0.215915Z" fill="#EF6C00"/>
<path d="M5.1874 20.5332C4.69947 20.5332 4.30347 20.1151 4.30347 19.5999V10.267C4.30347 9.75182 4.69947 9.33371 5.1874 9.33371H7.83918C9.78913 9.33371 11.3749 11.008 11.3749 13.0669C11.3749 15.1257 9.78913 16.8 7.83918 16.8H6.07132V19.5999C6.07132 20.1151 5.67532 20.5332 5.1874 20.5332ZM6.07132 14.9335H7.83918C8.81327 14.9335 9.60704 14.0954 9.60704 13.0669C9.60704 12.0384 8.81327 11.2003 7.83918 11.2003H6.07132V14.9335Z" fill="#FAFAFA"/>
</svg>
