<svg width="22" height="28" viewBox="0 0 22 28" fill="none" xmlns="http://www.w3.org/2000/svg">
<path d="M21.1161 24.2667H8.74111C8.25318 24.2667 7.85718 23.8505 7.85718 23.3334C7.85718 22.8163 7.85718 5.18226 7.85718 4.66707C7.85718 4.15188 8.25318 3.73375 8.74111 3.73375H21.1161C21.604 3.73375 22 4.15188 22 4.66707V23.3334C22 23.8505 21.604 24.2667 21.1161 24.2667Z" fill="#ECEFF1"/>
<path d="M17.5804 9.33366H8.74111C8.25318 9.33366 7.85718 8.9174 7.85718 8.40034C7.85718 7.88329 8.25318 7.46703 8.74111 7.46703H17.5804C18.0683 7.46703 18.4643 7.88515 18.4643 8.40034C18.4643 8.91553 18.0683 9.33366 17.5804 9.33366Z" fill="#1976D2"/>
<path d="M17.5804 13.0669H8.74111C8.25318 13.0669 7.85718 12.6507 7.85718 12.1336C7.85718 11.6165 8.25318 11.2003 8.74111 11.2003H17.5804C18.0683 11.2003 18.4643 11.6184 18.4643 12.1336C18.4643 12.6488 18.0683 13.0669 17.5804 13.0669Z" fill="#1976D2"/>
<path d="M17.5804 16.8002H8.74111C8.25318 16.8002 7.85718 16.3839 7.85718 15.8669C7.85718 15.3498 8.25318 14.9336 8.74111 14.9336H17.5804C18.0683 14.9336 18.4643 15.3517 18.4643 15.8669C18.4643 16.3821 18.0683 16.8002 17.5804 16.8002Z" fill="#1976D2"/>
<path d="M17.5804 20.5335H8.74111C8.25318 20.5335 7.85718 20.1172 7.85718 19.6002C7.85718 19.0831 8.25318 18.6668 8.74111 18.6668H17.5804C18.0683 18.6668 18.4643 19.085 18.4643 19.6002C18.4643 20.1153 18.0683 20.5335 17.5804 20.5335Z" fill="#1976D2"/>
<path d="M14.6983 0.217025C14.5083 0.0378286 14.2533 -0.0368367 14.0133 0.0172956L0.68 2.81725C0.286667 2.89938 0 3.28577 0 3.73376V24.2667C0 24.7147 0.285 25.1011 0.68 25.1833L14.0133 27.9832C14.065 27.9944 14.115 28 14.1667 28C14.36 28 14.5483 27.9253 14.6983 27.7853C14.89 27.608 15 27.3448 15 27.0667V0.933813C15 0.655684 14.89 0.394356 14.6983 0.217025Z" fill="#1565C0"/>
<path d="M10.4858 18.7713C10.4399 19.1988 10.1217 19.5404 9.71681 19.5927C9.67969 19.5983 9.64433 19.6001 9.60721 19.6001C9.24303 19.6001 8.91067 19.3612 8.77985 18.9953L6.95542 13.8584L5.13099 18.9953C4.98956 19.3948 4.61831 19.6393 4.20817 19.5945C3.80687 19.5497 3.48512 19.2212 3.42855 18.7975L2.54462 12.2643C2.47567 11.7565 2.81156 11.2824 3.29419 11.2096C3.77858 11.1349 4.22585 11.4915 4.2948 12.0011L4.68903 14.9205L6.1263 10.8718C6.3844 10.1438 7.5229 10.1438 7.78278 10.8718L9.13696 14.6834L9.61251 10.1624C9.66731 9.65097 10.1163 9.28325 10.5884 9.33738C11.0745 9.39711 11.4228 9.85817 11.3698 10.3696L10.4858 18.7713Z" fill="#FAFAFA"/>
</svg>
