<svg width="24" height="20" viewBox="0 0 24 20" fill="none" xmlns="http://www.w3.org/2000/svg">
<mask id="mask0_5131_8790" style="mask-type:luminance" maskUnits="userSpaceOnUse" x="0" y="0" width="24" height="20">
<path d="M24 0H0V19.0909H24V0Z" fill="white"/>
</mask>
<g mask="url(#mask0_5131_8790)">
<path d="M23.4347 1.90062H12.9738C12.8618 1.90491 12.752 1.86996 12.6632 1.8018L9.67028 -0.18873C9.57627 -0.244399 9.46901 -0.273665 9.3597 -0.273436H0.564693C0.417339 -0.273477 0.275809 -0.215926 0.170305 -0.113064C0.0648001 -0.010194 0.00369 0.12983 0 0.277135V18.7707C0.00369 18.918 0.0648001 19.0581 0.170305 19.1609C0.275809 19.2638 0.417339 19.3214 0.564693 19.3213H23.4347C23.582 19.3214 23.7236 19.2638 23.829 19.1609C23.9346 19.0581 23.9957 18.918 23.9994 18.7707V2.46531C23.9994 2.31555 23.9398 2.17192 23.8339 2.06602C23.7281 1.96011 23.5844 1.90062 23.4347 1.90062Z" fill="#005BA1"/>
<path d="M7.41378 0.798828H2.41631C2.29156 0.798828 2.19043 0.899956 2.19043 1.0247V1.65998C2.19043 1.78473 2.29156 1.88586 2.41631 1.88586H7.41378C7.53856 1.88586 7.63968 1.78473 7.63968 1.65998V1.0247C7.63968 0.899956 7.53856 0.798828 7.41378 0.798828Z" fill="white"/>
<path d="M3.12217 0.798828H2.34572C2.25996 0.798828 2.19043 0.868358 2.19043 0.954119V1.73057C2.19043 1.81633 2.25996 1.88586 2.34572 1.88586H3.12217C3.20794 1.88586 3.27746 1.81633 3.27746 1.73057V0.954119C3.27746 0.868358 3.20794 0.798828 3.12217 0.798828Z" fill="#1AC3F2"/>
<path d="M23.4347 1.87331H11.9996C11.9254 1.87093 11.8516 1.88487 11.7832 1.91414C11.7149 1.94341 11.6539 1.9873 11.6044 2.04271L9.69859 3.87795C9.58977 3.97562 9.44945 4.03077 9.30325 4.03324H0.564693C0.414925 4.03324 0.271301 4.09274 0.165396 4.19864C0.0594982 4.30454 0 4.44817 0 4.59794V18.7152C0.00369 18.8625 0.0648001 19.0025 0.170305 19.1054C0.275809 19.2082 0.417339 19.2658 0.564693 19.2658H23.4347C23.582 19.2658 23.7236 19.2082 23.829 19.1054C23.9346 19.0025 23.9957 18.8625 23.9994 18.7152V2.46623C24.0031 2.38974 23.9913 2.31325 23.9648 2.24145C23.9381 2.16965 23.8971 2.10402 23.8442 2.04855C23.7915 1.99309 23.7279 1.94895 23.6574 1.91882C23.5871 1.8887 23.5112 1.87321 23.4347 1.87331Z" fill="#1AC3F2"/>
<path d="M13.6637 4.86509C13.6268 4.85487 13.5877 4.85487 13.5508 4.86509C13.5508 4.86509 13.4238 4.86509 13.3673 4.96385L8.90625 11.4437C8.88637 11.4781 8.87598 11.517 8.87598 11.5567C8.87598 11.5963 8.88637 11.6352 8.90625 11.6696C8.92711 11.7088 8.9573 11.7422 8.99429 11.7669C9.03127 11.7915 9.07373 11.8066 9.11799 11.8107H11.7579L10.5862 15.7354C10.5746 15.7583 10.5681 15.7834 10.5668 15.8091C10.5656 15.8348 10.5698 15.8604 10.579 15.8844C10.5884 15.9083 10.6026 15.9301 10.6209 15.9482C10.6392 15.9663 10.661 15.9803 10.685 15.9894C10.7169 16.0014 10.752 16.0014 10.7838 15.9894C10.8685 15.9894 10.9109 15.9894 10.9673 15.8907L15.5696 9.312C15.5696 9.312 15.5696 9.22732 15.5696 9.17086C15.5659 9.10966 15.5391 9.05214 15.4945 9.01017C15.4498 8.9682 15.3908 8.94488 15.3296 8.94496H12.5061L13.6497 5.09091C13.6769 5.06031 13.6931 5.02137 13.6956 4.98046C13.6982 4.93946 13.687 4.89888 13.6637 4.86509Z" fill="white"/>
</g>
<defs>
<linearGradient id="paint0_linear_5131_8790" x1="12.3385" y1="-1.82541" x2="11.7879" y2="20.141" gradientUnits="userSpaceOnUse">
<stop stop-color="#32D4F5"/>
<stop offset="0.23" stop-color="#31D0F1"/>
<stop offset="0.46" stop-color="#2CC3E6"/>
<stop offset="0.7" stop-color="#25AFD4"/>
<stop offset="0.94" stop-color="#1C92BA"/>
<stop offset="1" stop-color="#198AB3"/>
</linearGradient>
</defs>
</svg>
